<svg width="416" height="299" viewBox="0 0 416 299" fill="none" xmlns="http://www.w3.org/2000/svg">
<g clip-path="url(#clip0_1_32135)">
<path opacity="0.95" d="M319.334 46.7593C328.764 51.9139 340.199 51.7803 349.506 46.4069L550.921 -69.8792C556.124 -72.8829 556.036 -80.4224 550.764 -83.3038L340.659 -198.148C331.228 -203.303 319.793 -203.169 310.486 -197.796L109.071 -81.5098C103.869 -78.506 103.957 -70.9666 109.228 -68.0852L319.334 46.7593Z" fill="#0101FF"/>
<path opacity="0.95" d="M340.658 -198.148C331.228 -203.303 319.793 -203.169 310.486 -197.796L109.071 -81.5095C103.868 -78.5057 103.956 -70.9663 109.228 -68.0849L319.334 46.7596C328.764 51.9142 340.199 51.7806 349.506 46.4072L550.921 -69.8788C556.124 -72.8826 556.036 -80.4221 550.764 -83.3035L340.658 -198.148Z" fill="#0101FF"/>
<path opacity="0.75" d="M304.69 -137.16C295.264 -142.309 283.835 -142.176 274.533 -136.807L73.224 -20.6357C68.024 -17.6348 68.112 -10.1028 73.3807 -7.2242L283.376 107.507C292.802 112.657 304.231 112.523 313.533 107.155L514.842 -9.01642C520.042 -12.0173 519.954 -19.5493 514.685 -22.4279L304.69 -137.16Z" fill="#0101FF"/>
<path opacity="0.5" d="M269.231 -76.4863C259.892 -81.5605 248.599 -81.4041 239.402 -76.0732L37.3509 41.05C32.1753 44.0501 32.2788 51.5857 37.5349 54.4414L247.143 168.324C256.483 173.399 267.776 173.242 276.972 167.911L479.024 50.7882C484.199 47.788 484.096 40.2524 478.84 37.3968L269.231 -76.4863Z" fill="#0101FF"/>
<path opacity="0.3" d="M233.386 -15.7421C224.046 -20.8163 212.753 -20.6599 203.557 -15.3291L1.50534 101.794C-3.67026 104.794 -3.56674 112.33 1.68927 115.186L211.298 229.069C220.637 234.143 231.93 233.986 241.127 228.655L443.178 111.532C448.354 108.532 448.25 100.997 442.994 98.1409L233.386 -15.7421Z" fill="#0101FF"/>
<path opacity="0.15" d="M197.54 45.003C188.201 39.9288 176.907 40.0852 167.711 45.4161L-34.3404 162.539C-39.516 165.539 -39.4124 173.075 -34.1564 175.931L175.452 289.814C184.791 294.888 196.084 294.731 205.281 289.401L407.332 172.277C412.508 169.277 412.404 161.742 407.148 158.886L197.54 45.003Z" fill="#0101FF"/>
</g>
<defs>
<clipPath id="clip0_1_32135">
<rect width="586" height="300" fill="white" transform="translate(0 -1)"/>
</clipPath>
</defs>
</svg>
