<svg xmlns="http://www.w3.org/2000/svg" width="24" height="24" fill="none" viewBox="0 0 24 24">
  <path stroke="#171D26" stroke-linecap="round" stroke-width="2" d="M20 13V7a2 2 0 0 0-2-2H6a2 2 0 0 0-2 2v10a2 2 0 0 0 2 2h4"/>
  <path fill="#171D26" d="M4 5h16v3H4z"/>
  <rect width="4" height="2" x="7" y="10" fill="#171D26" rx="1"/>
  <rect width="4" height="2" x="9" y="2" fill="#171D26" rx="1" transform="rotate(90 9 2)"/>
  <rect width="4" height="2" x="17" y="2" fill="#171D26" rx="1" transform="rotate(90 17 2)"/>
  <circle cx="16" cy="19" r="4" fill="#171D26"/>
  <path stroke="#171D26" stroke-linecap="round" stroke-width="2" d="M17 19a3 3 0 1 0 .102-.776"/>
</svg>
